<svg width="45" height="38" viewBox="0 0 45 38" fill="none" xmlns="http://www.w3.org/2000/svg">
<path fill-rule="evenodd" clip-rule="evenodd" d="M4.65796 18.5479C3.60986 16.9555 3 15.0491 3 13.0002C3 7.42007 7.52358 2.89648 13.1037 2.89648C17.424 2.89648 21.1109 5.60804 22.5556 9.42212C24.0002 5.60804 27.6871 2.89648 32.0074 2.89648C37.5875 2.89648 42.1111 7.42007 42.1111 13.0002C42.1111 15.0489 41.5013 16.9553 40.4534 18.5476C36.6482 24.9897 26.6101 32.7767 22.5556 35.0002C18.5011 32.7768 8.46328 24.9899 4.65796 18.5479Z" fill="white" fill-opacity="0.3"/>
<path d="M4.65796 18.5479L6.81047 17.2764C6.78989 17.2416 6.76847 17.2072 6.74622 17.1734L4.65796 18.5479ZM22.5556 9.42212L20.2176 10.3076C20.5857 11.2794 21.5165 11.9221 22.5556 11.9221C23.5947 11.9221 24.5254 11.2794 24.8935 10.3076L22.5556 9.42212ZM40.4534 18.5476L38.3651 17.1732C38.3428 17.207 38.3214 17.2413 38.3008 17.2761L40.4534 18.5476ZM22.5556 35.0002L21.3535 37.1922C22.1023 37.6029 23.0089 37.6029 23.7576 37.1922L22.5556 35.0002ZM0.5 13.0002C0.5 15.5524 1.26126 17.9345 2.56971 19.9224L6.74622 17.1734C5.95847 15.9766 5.5 14.5457 5.5 13.0002H0.5ZM13.1037 0.396484C6.14287 0.396484 0.5 6.03935 0.5 13.0002H5.5C5.5 8.80078 8.90429 5.39648 13.1037 5.39648V0.396484ZM24.8935 8.53662C23.0929 3.78281 18.4969 0.396484 13.1037 0.396484V5.39648C16.3511 5.39648 19.1289 7.43327 20.2176 10.3076L24.8935 8.53662ZM32.0074 0.396484C26.6142 0.396484 22.0182 3.78281 20.2176 8.53662L24.8935 10.3076C25.9822 7.43327 28.7601 5.39648 32.0074 5.39648V0.396484ZM44.6111 13.0002C44.6111 6.03935 38.9682 0.396484 32.0074 0.396484V5.39648C36.2068 5.39648 39.6111 8.80078 39.6111 13.0002H44.6111ZM42.5417 19.922C43.85 17.9341 44.6111 15.5522 44.6111 13.0002H39.6111C39.6111 14.5456 39.1527 15.9764 38.3651 17.1732L42.5417 19.922ZM23.7576 37.1922C25.9966 35.9644 29.6689 33.3397 33.2364 30.2441C36.7857 27.1644 40.494 23.3945 42.6059 19.819L38.3008 17.2761C36.6076 20.1427 33.3943 23.4874 29.9596 26.4676C26.5432 29.432 23.1691 31.8125 21.3535 32.8082L23.7576 37.1922ZM23.7576 32.8082C21.9421 31.8126 18.5681 29.4321 15.1517 26.4678C11.7171 23.4876 8.5038 20.143 6.81047 17.2764L2.50545 19.8194C4.61745 23.3948 8.32567 27.1647 11.8749 30.2443C15.4424 33.3398 19.1145 35.9644 21.3535 37.1922L23.7576 32.8082Z" fill="white"/>
</svg>
